#N canvas 65 63 577 341 12;
#N canvas 471 105 1164 855 signalrate 0;
#X text 236 298 Average "floor";
#X obj 307 214 bng 15 250 50 0 empty empty empty 17 7 0 10 #fcfcfc #000000 #000000;
#X obj 393 198 metro 1000;
#X obj 349 289 + 1;
#X obj 351 256 f;
#X floatatom 349 310 5 0 0 0 - - - 0;
#X msg 384 229 0;
#X obj 391 309 t b b;
#X obj 349 346 f;
#X obj 425 232 bng 15 250 50 0 empty empty empty 17 7 0 10 #fcfcfc #000000 #000000;
#X obj 349 370 expr 1000 / $f1;
#X floatatom 349 391 5 0 0 0 - - - 0;
#X text 390 393 ms;
#X obj 231 7 inlet;
#X obj 294 149 spigot;
#X obj 357 109 tgl 15 0 empty empty empty 17 7 0 10 #fcfcfc #000000 #000000 0 1;
#X floatatom 257 371 5 0 0 0 - - - 0;
#X obj 106 105 tgl 15 0 empty empty empty 17 7 0 10 #fcfcfc #000000 #000000 0 1;
#X text 123 104 On/off;
#X floatatom 106 124 5 0 0 0 - - - 0;
#X text 142 124 Hz;
#X text 142 142 ms;
#X floatatom 106 141 5 0 0 0 - - - 0;
#X connect 1 0 4 0;
#X connect 2 0 6 0;
#X connect 2 0 9 0;
#X connect 3 0 4 1;
#X connect 3 0 5 0;
#X connect 4 0 3 0;
#X connect 5 0 8 1;
#X connect 6 0 7 0;
#X connect 6 0 4 1;
#X connect 7 1 8 0;
#X connect 8 0 10 0;
#X connect 8 0 16 0;
#X connect 8 0 19 0;
#X connect 10 0 11 0;
#X connect 11 0 22 0;
#X connect 13 0 14 0;
#X connect 14 0 1 0;
#X connect 15 0 14 1;
#X connect 15 0 2 0;
#X connect 17 0 15 0;
#X coords 0 -1 1 1 85 60 2 100 100;
#X restore 366 169 pd signalrate;
#X msg 228 32 close;
#X msg 228 87 devices;
#X msg 228 50 open 2;
#N canvas 446 90 1049 823 serialinterface 0;
#X obj 243 134 moses 128;
#X floatatom 243 163 5 0 0 0 - - - 0;
#X floatatom 330 165 5 0 0 0 - - - 0;
#X obj 331 200 moses 144;
#X obj 420 245 moses 160;
#X obj 506 286 moses 176;
#X obj 595 325 moses 192;
#X obj 684 369 moses 208;
#X obj 772 409 moses 224;
#X obj 860 445 moses 240;
#X obj 331 231 - 128;
#X obj 420 274 - 144;
#X obj 506 315 - 160;
#X obj 595 354 - 176;
#X obj 772 438 - 208;
#X obj 684 398 - 192;
#X obj 860 474 - 224;
#X obj 209 734 f;
#X obj 683 471 * 128;
#X floatatom 683 500 5 0 0 0 - - - 0;
#X obj 684 436 t b f;
#X obj 684 532 +;
#X floatatom 684 561 5 0 0 0 - - - 0;
#X obj 37 734 f;
#X obj 81 734 f;
#X obj 123 734 f;
#X obj 162 734 f;
#X obj 254 734 f;
#X obj 297 734 f;
#X obj 340 734 f;
#X obj 770 512 * 128;
#X floatatom 770 541 5 0 0 0 - - - 0;
#X obj 771 477 t b f;
#X obj 771 573 +;
#X floatatom 771 602 5 0 0 0 - - - 0;
#X obj 858 543 * 128;
#X floatatom 858 572 5 0 0 0 - - - 0;
#X obj 859 508 t b f;
#X obj 859 604 +;
#X floatatom 859 633 5 0 0 0 - - - 0;
#X obj 594 421 * 128;
#X floatatom 594 450 5 0 0 0 - - - 0;
#X obj 595 386 t b f;
#X obj 595 482 +;
#X floatatom 595 511 5 0 0 0 - - - 0;
#X obj 508 383 * 128;
#X floatatom 508 412 5 0 0 0 - - - 0;
#X obj 509 348 t b f;
#X obj 509 444 +;
#X floatatom 509 473 5 0 0 0 - - - 0;
#X obj 417 344 * 128;
#X floatatom 417 373 5 0 0 0 - - - 0;
#X obj 418 309 t b f;
#X obj 418 405 +;
#X floatatom 418 434 5 0 0 0 - - - 0;
#X obj 329 303 * 128;
#X floatatom 329 332 5 0 0 0 - - - 0;
#X obj 330 268 t b f;
#X obj 330 364 +;
#X floatatom 330 393 5 0 0 0 - - - 0;
#X obj 684 589 outlet;
#X obj 771 630 outlet;
#X obj 859 661 outlet;
#X obj 595 539 outlet;
#X obj 509 501 outlet;
#X obj 418 462 outlet;
#X obj 330 421 outlet;
#X obj 947 548 * 128;
#X floatatom 947 577 5 0 0 0 - - - 0;
#X obj 948 513 t b f;
#X obj 948 609 +;
#X floatatom 948 638 5 0 0 0 - - - 0;
#X obj 948 666 outlet;
#X obj 949 479 - 240;
#X obj 271 73 comport 2 230400;
#X obj 264 18 inlet;
#X connect 0 0 1 0;
#X connect 0 1 2 0;
#X connect 1 0 17 1;
#X connect 1 0 23 1;
#X connect 1 0 24 1;
#X connect 1 0 25 1;
#X connect 1 0 26 1;
#X connect 1 0 27 1;
#X connect 1 0 28 1;
#X connect 1 0 29 1;
#X connect 2 0 3 0;
#X connect 3 0 10 0;
#X connect 3 1 4 0;
#X connect 4 0 11 0;
#X connect 4 1 5 0;
#X connect 5 0 12 0;
#X connect 5 1 6 0;
#X connect 6 0 13 0;
#X connect 6 1 7 0;
#X connect 7 0 15 0;
#X connect 7 1 8 0;
#X connect 8 0 14 0;
#X connect 8 1 9 0;
#X connect 9 0 16 0;
#X connect 9 1 73 0;
#X connect 10 0 57 0;
#X connect 11 0 52 0;
#X connect 12 0 47 0;
#X connect 13 0 42 0;
#X connect 14 0 32 0;
#X connect 15 0 20 0;
#X connect 16 0 37 0;
#X connect 17 0 21 0;
#X connect 18 0 19 0;
#X connect 19 0 21 1;
#X connect 20 0 17 0;
#X connect 20 1 18 0;
#X connect 21 0 22 0;
#X connect 22 0 60 0;
#X connect 23 0 58 0;
#X connect 24 0 53 0;
#X connect 25 0 48 0;
#X connect 26 0 43 0;
#X connect 27 0 33 0;
#X connect 28 0 38 0;
#X connect 29 0 70 0;
#X connect 30 0 31 0;
#X connect 31 0 33 1;
#X connect 32 0 27 0;
#X connect 32 1 30 0;
#X connect 33 0 34 0;
#X connect 34 0 61 0;
#X connect 35 0 36 0;
#X connect 36 0 38 1;
#X connect 37 0 28 0;
#X connect 37 1 35 0;
#X connect 38 0 39 0;
#X connect 39 0 62 0;
#X connect 40 0 41 0;
#X connect 41 0 43 1;
#X connect 42 0 26 0;
#X connect 42 1 40 0;
#X connect 43 0 44 0;
#X connect 44 0 63 0;
#X connect 45 0 46 0;
#X connect 46 0 48 1;
#X connect 47 0 25 0;
#X connect 47 1 45 0;
#X connect 48 0 49 0;
#X connect 49 0 64 0;
#X connect 50 0 51 0;
#X connect 51 0 53 1;
#X connect 52 0 24 0;
#X connect 52 1 50 0;
#X connect 53 0 54 0;
#X connect 54 0 65 0;
#X connect 55 0 56 0;
#X connect 56 0 58 1;
#X connect 57 0 23 0;
#X connect 57 1 55 0;
#X connect 58 0 59 0;
#X connect 59 0 66 0;
#X connect 67 0 68 0;
#X connect 68 0 70 1;
#X connect 69 0 29 0;
#X connect 69 1 67 0;
#X connect 70 0 71 0;
#X connect 71 0 72 0;
#X connect 73 0 69 0;
#X connect 74 0 0 0;
#X connect 75 0 74 0;
#X restore 197 118 pd serialinterface;
#X msg 228 68 open 3;
#X text 111 121 outputs>>;
#X text 460 168 <<tx speed;
#X connect 1 0 4 0;
#X connect 2 0 4 0;
#X connect 3 0 4 0;
#X connect 4 7 0 0;
#X connect 5 0 4 0;
